<svg xmlns="http://www.w3.org/2000/svg" viewBox="0 0 64 64" fill="none">
  <rect width="64" height="64" rx="14" fill="#0B0D13"/>
  <rect x="1" y="1" width="62" height="62" rx="13" stroke="rgba(255,255,255,0.1)" stroke-width="2"/>
  
  <!-- Warp vertical threads -->
  <path d="M22 14V50" stroke="#3B82F6" stroke-width="4" stroke-linecap="round"/>
  <path d="M32 14V50" stroke="#6366F1" stroke-width="4" stroke-linecap="round"/>
  <path d="M42 14V50" stroke="#8B5CF6" stroke-width="4" stroke-linecap="round"/>
  
  <!-- Weft horizontal woven thread -->
  <path d="M14 26C18 26 20 22 22 22C24 22 26 30 32 30C38 30 40 22 42 22C44 22 46 26 50 26" stroke="#06B6D4" stroke-width="4.5" stroke-linecap="round"/>
  <path d="M14 38C18 38 20 42 22 42C24 42 26 34 32 34C38 34 40 42 42 42C44 42 46 38 50 38" stroke="#10B981" stroke-width="4.5" stroke-linecap="round"/>
  
  <!-- Accent glowing nodes -->
  <circle cx="22" cy="22" r="3" fill="#06B6D4" filter="drop-shadow(0 0 4px #06B6D4)"/>
  <circle cx="32" cy="30" r="3" fill="#06B6D4" filter="drop-shadow(0 0 4px #06B6D4)"/>
  <circle cx="42" cy="42" r="3" fill="#10B981" filter="drop-shadow(0 0 4px #10B981)"/>
</svg>
